<svg xmlns="http://www.w3.org/2000/svg"><symbol id="mail-b" viewBox="0 0 135 135"><path d="M10.1 23.8a9.1 9.1 0 0 0-3.7.8l57.3 50c2.4 2.2 5.1 2.2 7.6 0l57.3-50a9.1 9.1 0 0 0-3.7-.8zm-10 8.7A7.6 7.6 0 0 0 0 34v67.5a10.1 10.1 0 0 0 10.1 10.1h114.8a10.1 10.1 0 0 0 10.1-10.1V34a7.6 7.6 0 0 0-.1-1.5l-57 49.8a16 16 0 0 1-20.9 0z"/></symbol><symbol id="cart-b" viewBox="0 0 135 135"><path d="M3 20.8a2.9 2.9 0 0 1-3.1-3A2.9 2.9 0 0 1 3 14.7h12a14.5 14.5 0 0 1 14.5 11.4l.9 4H135l-13.9 50a8.8 8.8 0 0 1-8.6 6.7H44.6l1.6 6.5h72.5a3.1 3.1 0 0 1 3 3.1 3.3 3.3 0 0 1-3 3.1H44a3 3 0 0 1-3.1-2.5L23.7 27.3a8.9 8.9 0 0 0-8.7-6.5z"/><path fill-rule="evenodd" d="M52 105.3a7.8 7.8 0 1 1 0 15.5 7.8 7.8 0 0 1 0-15.5zm56.2 0a7.8 7.8 0 1 1-7.7 7.8 7.7 7.7 0 0 1 7.7-7.8z"/></symbol><symbol id="instagram-b" viewBox="0 0 135 135"><path d="M45 67.7a22.5 22.5 0 1 1 22.5 22.5A22.5 22.5 0 0 1 45 67.7m-12.2-.2a34.7 34.7 0 1 0 34.7-34.7 34.7 34.7 0 0 0-34.7 34.7m61.3-44.9a8.1 8.1 0 1 0 16.2 0 8.1 8.1 0 1 0-16.2 0M30.3.2h74.4A30.3 30.3 0 0 1 135 30.5v74.4a30.3 30.3 0 0 1-30.3 30.3H30.3A30.3 30.3 0 0 1 0 104.9V30.5A30.3 30.3 0 0 1 30.3.2z"/></symbol><symbol id="phone-b" viewBox="0 0 135 135"><path fill-rule="evenodd" d="M33.9 1.3C49.2-4.5 62.8 32.4 53.3 41c-3 2.7-14.8 7.1-14.7 10.6 2.8 15.7 21.1 41.8 35.2 50.2 3.2 1.3 11.4-8.3 15-10.1 11.3-6 41.3 19.4 30.6 31.7C92 155.3 50.6 112.1 35.8 91S-5.4 16.2 33.9 1.3z"/></symbol><symbol id="snapchat-b" viewBox="0 0 135 135"><path d="M68.2 129.3h-1.7c-7.8 0-13-3.7-17.7-7s-6.4-4.5-10.1-5.2a30.8 30.8 0 0 0-5.3-.4 40.3 40.3 0 0 0-7.3.8l-2.8.4a1.9 1.9 0 0 1-2.1-1.5c-.3-1-.6-2-.8-3s-.9-4-1.8-4.1c-9.9-1.5-15.7-3.8-16.8-6.5a1.9 1.9 0 0 1-.2-.8 1.6 1.6 0 0 1 1.3-1.7c7.8-1.3 14.7-5.4 20.6-12.2a47 47 0 0 0 7.1-11c1.1-2.3 1.4-4.2.7-5.9S25.8 66.9 23 66l-1.8-.6c-2.5-1-6.5-3-6-5.8s3.1-3.6 5.3-3.6a4.3 4.3 0 0 1 1.7.4 16.9 16.9 0 0 0 6.6 1.6 6.4 6.4 0 0 0 3.9-1.1l-.3-4c-.5-8.9-1.2-20.1 1.6-26.5C42.6 7.3 60.7 5.8 66 5.8h2.7c5.3 0 23.5 1.5 32 20.7 2.9 6.4 2.2 17.6 1.6 26.5v.5c-.1 1.2-.2 2.3-.2 3.5a5.7 5.7 0 0 0 3.5 1.1 15.7 15.7 0 0 0 6.3-1.7 4 4 0 0 1 2-.4 6.4 6.4 0 0 1 2.4.4c2 .7 3.3 2.1 3.3 3.6s-1 3.4-6 5.4l-1.9.6c-2.8.9-7 2.3-8.2 5.2s-.5 3.6.7 5.9c.3.8 8.8 20.1 27.7 23.2a1.8 1.8 0 0 1 1.3 1.7 1.9 1.9 0 0 1-.2.8c-1.2 2.7-7 4.9-16.8 6.5-.9.1-1.3 1.6-1.9 4s-.4 2-.7 3.1a1.8 1.8 0 0 1-2 1.4h-.1l-2.8-.3a37.2 37.2 0 0 0-7.4-.8 32.3 32.3 0 0 0-5.3.4c-3.7.7-6.8 2.9-10.1 5.2s-9.9 7-17.7 7"/><path d="M68.7 7.3c5 0 22.4 1.4 30.6 19.7 2.7 6.1 2 17 1.4 25.8 0 1.4-.1 2.8-.2 4.1v.5l.3.4a6.6 6.6 0 0 0 4.7 1.8h.1a18 18 0 0 0 6.9-1.9 3.2 3.2 0 0 1 1.4-.3 5.8 5.8 0 0 1 1.8.4c1.4.5 2.3 1.3 2.3 2.1s-.3 2.1-5 3.9l-1.8.6c-3 1-7.6 2.5-9.2 6.1s-.6 4.5.7 7.2 9.3 20.9 28.9 24.2a.4.4 0 0 1-.1.3c-.3.8-2.4 3.5-15.6 5.5-2 .3-2.5 2.6-3.1 5.3-.2 1-.4 1.9-.7 2.9s-.1.3-.5.3h-.1l-2.5-.3a44.4 44.4 0 0 0-7.7-.8 36.4 36.4 0 0 0-5.6.5c-4 .7-7.2 3-10.7 5.4s-9.5 6.7-16.8 6.7h-1.6c-7.4 0-12.2-3.4-16.8-6.7s-6.8-4.7-10.8-5.4a35.3 35.3 0 0 0-5.6-.5 34.3 34.3 0 0 0-7.6.9l-2.5.4c-.5 0-.5-.1-.6-.4s-.5-2-.7-3c-.6-2.7-1.1-5-3.2-5.3-13.1-2-15.2-4.7-15.6-5.5v-.3C22.8 98.7 31.5 79 32 77.7s1.6-5.1.7-7.2-6.1-5.1-9.2-6.1l-1.7-.6c-4-1.5-5.2-3.1-5-4.1s2.1-2.2 3.7-2.2l1 .2a17.2 17.2 0 0 0 7.3 1.9c3.4 0 5-1.6 5.1-1.8l.4-.4v-.5l-.3-4.1c-.5-8.8-1.2-19.7 1.5-25.8C43.6 8.7 60.9 7.3 66 7.3h2.7m0-3.1H66a39.3 39.3 0 0 0-15.4 3.2 35.2 35.2 0 0 0-9.8 6.6 34.7 34.7 0 0 0-8.2 11.8c-3 6.7-2.3 18.1-1.7 27.2 0 1 .1 2 .1 3a4.7 4.7 0 0 1-2.2.5 14.5 14.5 0 0 1-6-1.7 5.3 5.3 0 0 0-2.3-.4 8.3 8.3 0 0 0-4 1.1 5.1 5.1 0 0 0-2.8 3.7c-.2.9-.2 2.8 1.9 4.7a17.3 17.3 0 0 0 5 2.9l2 .6c2.5.8 6.2 2 7.2 4.4s.3 2.7-.6 4.5c0 .1-.1.1-.1.2A44.2 44.2 0 0 1 22.3 87a37.4 37.4 0 0 1-8.2 7.3 30.1 30.1 0 0 1-11.5 4.5 3.3 3.3 0 0 0-2.3 4.6c.7 1.5 2.2 2.8 4.6 4a56.1 56.1 0 0 0 13.2 3.4 13 13 0 0 1 .8 2.9 21.4 21.4 0 0 0 .8 3.2 3.3 3.3 0 0 0 3.6 2.6 20.3 20.3 0 0 0 3.1-.4 30.6 30.6 0 0 1 7-.8 29.2 29.2 0 0 1 5.1.4c3.3.6 6.1 2.6 9.4 4.9 4.9 3.4 10.3 7.3 18.6 7.3h1.7c8.3 0 13.8-3.9 18.6-7.3 3.3-2.3 6.2-4.3 9.5-4.9a28.9 28.9 0 0 1 5-.4 35.5 35.5 0 0 1 7.1.7 13.8 13.8 0 0 0 3.1.4h.1a3.4 3.4 0 0 0 3.5-2.6c.3-1.1.5-2.1.8-3.1a14.8 14.8 0 0 1 .8-2.9 51 51 0 0 0 13.2-3.5q3.6-1.6 4.5-3.9a3.1 3.1 0 0 0 .3-1.3 3 3 0 0 0-2.6-3.3c-18-3-26.1-21.5-26.5-22.3v-.2c-1-1.8-1.2-3.4-.7-4.5s4.8-3.6 7.3-4.4l2-.6a15.1 15.1 0 0 0 5.3-3.2 5.4 5.4 0 0 0 1.7-3.7c-.1-2.2-1.7-4.1-4.4-5.1a8.8 8.8 0 0 0-2.9-.5 7.4 7.4 0 0 0-2.7.5 13.7 13.7 0 0 1-5.6 1.6 4.1 4.1 0 0 1-1.9-.4c.1-.8.1-1.7.2-2.6V53c.6-9.1 1.3-20.5-1.7-27.3a37.5 37.5 0 0 0-8.3-11.8 32.9 32.9 0 0 0-9.8-6.5 39.3 39.3 0 0 0-15.4-3.2"/></symbol><symbol id="twitter-b" viewBox="0 0 135 135"><path d="M89.9 12.9h6.3l2.3.5a25.8 25.8 0 0 1 4.2 1.2 29.2 29.2 0 0 1 3.6 1.7 19.5 19.5 0 0 1 3.2 2 18.3 18.3 0 0 1 2.6 2.1c.7.8 1.9.9 3.4.6l5.1-1.5 5.4-2.2 3.3-1.6.6-.3h.9v.4h-.1v.2h-.1v.2a.9.9 0 0 0-.1.5l-1.2 2.5a30.1 30.1 0 0 1-2.7 4.3 20.9 20.9 0 0 1-2.9 3.3l-1.8 1.6a3.9 3.9 0 0 1-1 .8l-.6.4h-.3l3.4-.8a55.9 55.9 0 0 0 6.5-1.7l3.3-1.1.4-.2h1.1v.2h-.6l-1.5 2-1.6 2.1c-.1 0-.2.1-.4.4l-2.8 3.5a43.8 43.8 0 0 1-4.6 4.2 5.8 5.8 0 0 0-2.3 4.6c0 1.8-.1 3.8-.3 6.1a53.1 53.1 0 0 1-.9 7.4 82.7 82.7 0 0 1-2 8.9 102.8 102.8 0 0 1-3.4 9.8c-1.4 3.1-2.8 6-4.2 8.5s-2.8 4.6-4 6.4-2.5 3.4-3.7 4.9a70.1 70.1 0 0 1-4.8 5.2l-3.1 3.2-2.4 2c-1.4 1.2-2.9 2.3-4.5 3.5s-3 2.1-4.4 2.9l-4.8 2.6c-1.9 1-3.9 1.9-6.1 2.8l-6.9 2.4a70.8 70.8 0 0 1-7 1.7c-2.3.4-4.9.7-7.7 1l-4.3.4H35.7l-5-.7a69 69 0 0 1-6.8-1.2 65.9 65.9 0 0 1-7.4-2.4 58.3 58.3 0 0 1-8.4-3.4l-4.4-2.2-2-1.1-1.1-.7H0v-.8h.8l3 .2h5.1a53.2 53.2 0 0 0 5.6-.6 67 67 0 0 0 6.8-1.5 49.3 49.3 0 0 0 7.1-2.4l4.6-2.2a34.7 34.7 0 0 0 4.1-2.5l2.8-1.9h.5v-.2h-2.7a18.6 18.6 0 0 1-2.9-.6 29.5 29.5 0 0 1-4.2-1.4l-4.3-2.3a20.6 20.6 0 0 1-3.1-2.3l-2.4-2.5a19.8 19.8 0 0 1-2.6-3.3 34.4 34.4 0 0 1-2.1-3.9l-1-2.2V80h.3l1.3.2a25.5 25.5 0 0 0 4.2.1l4-.2 1.3-.3H26l-.9-.2-3.4-2.6a22.9 22.9 0 0 1-4.2-2.2 24.3 24.3 0 0 1-3-2.4 26.7 26.7 0 0 1-3.1-3.4 23.3 23.3 0 0 1-3.1-4.8 31.6 31.6 0 0 1-2-5.3 27.4 27.4 0 0 1-.8-5l-.3-2.6H6l1.9.9a27.6 27.6 0 0 0 4.6 1.8l3.4.6h.7l-1-.7a19.4 19.4 0 0 1-2.1-2l-2.2-2.6a17.3 17.3 0 0 1-1.9-2.8A36.6 36.6 0 0 1 7.6 42a27.9 27.9 0 0 1-1.4-4.7 19.5 19.5 0 0 1-.6-4.7c0-1.6 0-2.9.1-4a36 36 0 0 1 .8-3.7A22.9 22.9 0 0 1 8 20.5l1.1-2.3v-.4h.5l1.7 1.8 3.8 4.1a19.7 19.7 0 0 0 2.5 2.3 1.7 1.7 0 0 1 .6.6l2.5 2.1a42.1 42.1 0 0 0 5.4 4 72.3 72.3 0 0 0 7.4 4.4 69.6 69.6 0 0 0 8.7 4c3.1 1.2 5.3 1.9 6.5 2.3s3.4.8 6.5 1.4 5.3.9 6.8 1.1l3.2.3h.8v-.4l-.3-1.5a41.9 41.9 0 0 1-.2-4.2 26.4 26.4 0 0 1 .4-5.1 30.2 30.2 0 0 1 1.3-4.7 24.1 24.1 0 0 1 1.7-3.3c.6-1 1.3-2 2.2-3.3a28 28 0 0 1 3.4-3.7 29 29 0 0 1 4.9-3.5 30.6 30.6 0 0 1 5-2.3l3.9-1.1z"/></symbol><symbol id="facebook-b" viewBox="0 0 135 135"><path d="M72.7 135V73.6h20.6l3.1-23.9H72.7V34.4c0-6.9 1.9-11.6 11.8-11.6h12.7V1.4a161.6 161.6 0 0 0-18.4-1C60.5.4 48 11.6 48 32.1v17.6H27.3v23.9H48V135z"/></symbol></svg>